<?xml version="1.0" encoding="UTF-8" standalone="no"?>
<svg
   xmlns:dc="http://purl.org/dc/elements/1.1/"
   xmlns:cc="http://creativecommons.org/ns#"
   xmlns:rdf="http://www.w3.org/1999/02/22-rdf-syntax-ns#"
   xmlns:svg="http://www.w3.org/2000/svg"
   xmlns="http://www.w3.org/2000/svg"
   xmlns:sodipodi="http://sodipodi.sourceforge.net/DTD/sodipodi-0.dtd"
   xmlns:inkscape="http://www.inkscape.org/namespaces/inkscape"
   sodipodi:docname="watchdog_pi.svg"
   height="507"
   width="511"
   inkscape:version="1.0 (4035a4fb49, 2020-05-01)"
   version="1.1"
   id="svg3082">
  <metadata
     id="metadata3916">
    <rdf:RDF>
      <cc:Work
         rdf:about="">
        <dc:format>image/svg+xml</dc:format>
        <dc:type
           rdf:resource="http://purl.org/dc/dcmitype/StillImage" />
        <dc:title />
      </cc:Work>
    </rdf:RDF>
  </metadata>
  <defs
     id="defs3086" />
  <sodipodi:namedview
     inkscape:document-rotation="0"
     inkscape:current-layer="g3205"
     inkscape:window-maximized="1"
     inkscape:window-y="-9"
     inkscape:window-x="-9"
     inkscape:cy="748.31427"
     inkscape:cx="-1598.9322"
     inkscape:zoom="0.23274162"
     showgrid="false"
     id="namedview3084"
     inkscape:window-height="1011"
     inkscape:window-width="1920"
     inkscape:pageshadow="2"
     inkscape:pageopacity="0"
     guidetolerance="10"
     gridtolerance="10"
     objecttolerance="10"
     borderopacity="1"
     bordercolor="#666666"
     pagecolor="#ffffff" />
  <g
     id="g3205">
    <path
       sodipodi:nodetypes="ccccccccccccccccccccccccccccccccccccccccccccccccccccccccccc"
       inkscape:connector-curvature="0"
       id="path3219"
       d="m 443.052,202.234 c 24.105,10.176 -9.996,80.53 -20.759,123.141 C 168.354,378.513 29.4167,103.27 443.052,202.234 Z m 67.026,303.18 c 1.116,-3.637 0.5,5.106 0,0 z M 510.272,492 c 0.761,-8.066 0.761,8.066 0,0 z m 0,-16 c 0.761,-8.066 0.761,8.066 0,0 z m 0,-16 c 0.761,-8.066 0.761,8.066 0,0 z m 0,-16 c 0.761,-8.066 0.761,8.066 0,0 z m 0,-16 c 0.761,-8.066 0.761,8.066 0,0 z m 0,-16 c 0.761,-8.066 0.761,8.066 0,0 z m 0,-16 c 0.761,-8.066 0.761,8.066 0,0 z m 0,-16 c 0.761,-8.066 0.761,8.066 0,0 z m 0,-16 c 0.761,-8.066 0.761,8.066 0,0 z m 0.01,-15 c 0.404,-9.402 0.845,9.971 0,0 z m 0,-16 c 0.404,-9.402 0.845,9.971 0,0 z m 0,-16 c 0.404,-9.402 0.845,9.971 0,0 z m 0,-16 c 0.404,-9.402 0.845,9.971 0,0 z m 0,-16 c 0.404,-9.402 0.845,9.971 0,0 z m 0,-16 c 0.404,-9.402 0.845,9.971 0,0 z m 0,-80 c 0.404,-9.402 0.845,9.971 0,0 z m -0.01,-15 c 0.761,-8.066 0.761,8.066 0,0 z m 0,-16 c 0.761,-8.066 0.761,8.066 0,0 z m 0,-16 c 0.761,-8.066 0.761,8.066 0,0 z m 0,-16 c 0.761,-8.066 0.761,8.066 0,0 z m 0,-16 c 0.761,-8.066 0.761,8.066 0,0 z m 0,-16 c 0.761,-8.066 0.76,8.066 0,0 z m 0,-16 c 0.761,-8.066 0.761,8.066 0,0 z m 0,-16 c 0.761,-8.066 0.761,8.066 0,0 z m 0,-16 c 0.761,-8.066 0.761,8.066 0,0 z m 0,-16 c 0.761,-8.066 0.761,8.066 0,0 z m 0,-16 c 0.761,-8.06603 0.761,8.066 0,0 z"
       style="fill:#e5e0dc" />
    <path
       sodipodi:nodetypes="ccccccc"
       inkscape:connector-curvature="0"
       id="path3217"
       d="m 411.396,184.986 c 10.656,8.004 20.436,27.314 -2.39,29.1 -45.479,12.175 -76.4,23.742 -124.554,13.205 -46.44,-26.4 -94.157,47.14 -68,63.013 11.445,3.776 25.31,1.248 37.54,2.498 137.184,-35.576 203.437,97.65 30.659,201.285 C 28.6403,117.081 149.52,-16.7115 411.396,184.986 Z"
       style="fill:#ad9d99" />
    <path
       sodipodi:nodetypes="ccccccccccc"
       inkscape:connector-curvature="0"
       id="path3215"
       d="m 19.0006,401.16 c 23.929,-21.556 68.987,-138.209 89.0378,-163.235 33.417,-47.129 105.901,-89.985 53.524,40.302 23.996,99.728 321.13614,146.57815 231.06714,39.37415 85.32337,-41.1224 16.45704,-133.20218 94.81166,-109.34046 -0.694,13.238 23.9232,29.75031 21.5502,42.30231 -38.337,29.264 -41.005,115.421 -79.156,111.058 -24.749,4.741 -34.949,22.024 -34.301,48.313 0.102,32.174 -126.243,65.121 -126.637,97.313 C 136.73,507.427 132.166,506.836 0,507.004 48.2466,450.999 20.9206,445.052 19.0006,401.16 Z"
       style="fill:#948179" />
    <path
       sodipodi:nodetypes="ccccccccc"
       inkscape:connector-curvature="0"
       id="path3213"
       d="m 242.915,349.13003 c 23.376,-2.064 47.431,-9.201 71.962,-5.339 18.053,-0.535 55.971,7.515 61.24,-1.334 97.32,-18.653 22.094,-0.632 34.029,23.878 -26.168,3.852 -5.508,-1.52 -12.423,28.329 -8.924,33.58 2.029,68.376 -0.86,102.393 -13.139,22.8 -48.478,3.607 -71.376,9.946 -26.169,0.158 -52.357,0.156 -78.496,-1.27 C 93.845033,23.765204 213.21769,335.70695 242.915,349.13003 Z"
       style="fill:#847c7c" />
    <path
       sodipodi:nodetypes="ccccccccccccccccccccccccccccc"
       inkscape:connector-curvature="0"
       id="path3211"
       d="M -1.1028,389.519 C 51.1585,340.011 68.146,303.266 69.977,301.1 86.0614,222.584 122.076,158.26 172.175,96.5774 c 12.306,-14.155 26.73069,-89.9522293 46.08269,-85.601729 9.446,21.6296 19.64831,102.174729 50.02031,75.879729 33.443,-12.796 43.871,-53.569 58.01,-78.82455 33.916,5.08144 12.893,47.46967 25.041,69.03199 12.33,42.3017 37.276,79.41 63.525,114.2552 -6.445,28.945 -46.291,14.521 -67.9,16.268 -29.18,-3.474 -62.206,-9.89 -87.737,9.117 -20.25,14.955 -52.999,34.287 -48.96,62.641 5.693,34.603 22.027,68.7 51.304,89.28 51.691,79.169 -72.054,91.941 -146.529,33.915 C -1.73441,202.57 3.27723,501.336 -1.1028,389.519 Z M 123.598,297.498 c 34.98,-3.973 28.921,-75.487 -5.468,-64.67 -18.4027,12.582 -32.8061,42.21 -17.188,61.785 6.119,4.805 15.686,7.199 22.656,2.885 z M 361.451,186.584 c 27.09,-24.241 -32.705,-61.176 -41.703,-26.14 -5.043,23.562 24.93,28.207 41.703,26.14 z m 50.376,166.685 c -37.677,1.68 -60.74,-31.82 -87.159,-54.29 37.37,-9.914 79.073,14.588 113.759,-8.314 32.02,-18.355 5.684,-60.152 25.23,-81.659 31.656,-18.487 63.811,24.153 37.2,50.017 -22.134,23.077 -24.941,56.915 -31.185,85.507 -11.988,16.752 -40.78,14.931 -57.848,8.739 z"
       style="fill:#635754" />
    <path
       sodipodi:nodetypes="scccccccsccccccccccc"
       inkscape:connector-curvature="0"
       id="path3209"
       d="m 0,438.2 c 0,-22.928 0,-45.857 0,-68.7 24.8342,-19.497 46.077,-43.05 68.4336,-65.204 7.8469,20.788 25.3619,41.615 21.2044,64.913 -5.6953,27.508 -39.8694,20.486 -50.3252,38.408 2.6266,30.385 24.8677,54.48 39.8776,79.786 C 86.0177,497.551 99.2723,511.4 79.0453,507 52.6968,507 26.3484,507 0,507 0,484.071 0,461.142 0,438.2 Z M 203,289.649 c 23.641,16.603 10.914,45.212 34.455,61.761 42.815,31.234 78.608,74.77 95.8,125.335 1.814,10.683 12.107,36.251 -7.788,30.248 -24.658,-0.01 -49.316,-0.02 -73.974,0 -3.963,-2.67 -7.927,-5.35 -11.89,-8.031 C 193.962,466.845 154.15,427.43 115,406.008 154.017,396.124 194.983,403.488 234.078,410 222.037,393.269 198.857,379.984 186.116,361.299 171.451,337.894 171.567,325.512 160.791,300.2 161.929,169.635 218.764,249.119 203,281.29"
       style="fill:#3a3531" />
    <path
       id="path3920"
       d="M 0.243154,437 C 3.8916,409.228 -11.0654,371.173 20.1259,353.178 c 16.6872,-11.092 35.7408,-43.533 49.224,-42.84 12.0296,22.48 34.0951,60.547 3.2411,77.784 -26.5312,2.634 -44.1133,26.283 -25.2596,49.269 11.8024,24.423 28.507,45.944 43.3654,68.506 -28.5025,-1.02 -69.473,6.791 -90.695079,-3.22 0.080271,-21.642 0.160543,-43.285 0.24081,-64.927 z"
       style="fill:#221e1c" />
    <path
       sodipodi:nodetypes="ccccccccccccc"
       inkscape:connector-curvature="0"
       id="path3207"
       d="m 182,341.483 c -21.824,-17.456 -29.229,-47.566 -35.532,-73.43 1.099,-29.686 -12.361,-55.234 -30.827,-75.727 -1.459,-25.971 23.892,-41.539 34.396,-63.042 16.208,-23.674 35.27431,-59.739631 52.11331,-82.965831 -1.112,24.5838 -15.87885,75.447011 15.65715,84.877911 22.75,-10.191 23.88454,-34.48468 48.96854,-43.39708 21.575,-22.2457 50.97,-22.3655 73.94,-2.2595 32.27,13.8908 24.47,54.0143 -7.7,61.6528 -22.838,18.087 -34.817,48.616 -63.504,61.253 -30.355,18.688 -67.065,42.732 -68.441,82.34 -3.946,16.19 17.03,65.605 -19.062,50.702 z"
       style="fill:#221e1c" />
  </g>
</svg>
